<?xml version="1.0" encoding="UTF-8"?>
<!DOCTYPE svg PUBLIC "-//W3C//DTD SVG 1.1 Basic//EN" "http://www.w3.org/Graphics/SVG/1.1/DTD/svg11-basic.dtd">
<svg xmlns="http://www.w3.org/2000/svg" xmlns:xlink="http://www.w3.org/1999/xlink" width="600" height="600" viewBox="-3 -3 106 106">
<path d="M0,-2 h100 a2,2 0 0 1 2,2 v94 a2,2 0 0 1 -2,2 h-100 a2,2 0 0 1 -2,-2 v-94 a2,2 0 0 1 2,-2 z"
fill="white" stroke="black" stroke-width="1" />
<path d="M3,0 h19 a3,3 0 0 1 3,3 v52 a3,3 0 0 1 -3,3 h-19 a3,3 0 0 1 -3,-3 v-52 a3,3 0 0 1 3,-3 z"
fill="#00A" stroke="white" stroke-width="2"/>
<path d="M3,58 h19 a3,3 0 0 1 3,3 v30 a3,3 0 0 1 -3,3 h-19 a3,3 0 0 1 -3,-3 v-30 a3,3 0 0 1 3,-3 z"
fill="#F40"  stroke="white" stroke-width="2"/>
<path
d="M22,1
h50 a2,2 0 0 1 2,2
v52 a4,4 0 0 1 4,4
h19 a2,2 0 0 1 2,2
v30 a2,2 0 0 1 -2,2
h-69 a2,2 0 0 1 -2,-2
v-88 a2,2 0 0 1 2,-2 z" fill="#00A"/>
<path d="M78,0 h19 a3,3 0 0 1 3,3 v52 a3,3 0 0 1 -3,3 h-19 a3,3 0 0 1 -3,-3 v-52 a3,3 0 0 1 3,-3 z"
fill="#00A" stroke="white" stroke-width="2"/>
</svg>